name Walk5.mot
datacolumns 19
datarows 10
range 1.12600000 1.13500000
endheader

                time	   L_ground_force_vx	   L_ground_force_vy	   L_ground_force_vz	   L_ground_force_px	   L_ground_force_py	   L_ground_force_pz	   R_ground_force_vx	   R_ground_force_vy	   R_ground_force_vz	   R_ground_force_px	   R_ground_force_py	   R_ground_force_pz	   L_ground_torque_x	   L_ground_torque_y	   L_ground_torque_z	   R_ground_torque_x	   R_ground_torque_y	   R_ground_torque_z	
          1.12600000	          0.00000000	          0.00000000	          0.00000000	          0.00000000	          0.00000000	          0.00000000	          0.00000000	          0.00000000	          0.00000000	          0.00000000	          0.00000000	          0.00000000	          0.00000000	          0.00000000	          0.00000000	          0.00000000	          0.00000000	          0.00000000	
          1.12700000	          0.00000000	          0.00000000	          0.00000000	          0.00000000	          0.00000000	          0.00000000	          0.00000000	          0.00000000	          0.00000000	          0.00000000	          0.00000000	          0.00000000	          0.00000000	          0.00000000	          0.00000000	          0.00000000	          0.00000000	          0.00000000	
          1.12800000	          0.77004214	          8.56616514	         -1.22080150	         -0.43771725	          0.00000000	         -0.06153514	          0.00000000	          0.00000000	          0.00000000	          0.00000000	          0.00000000	          0.00000000	          0.00000000	          0.01094777	          0.00000000	          0.00000000	          0.00000000	          0.00000000	
          1.12900000	          1.29830826	         16.42759554	         -2.00834781	         -0.43726416	          0.00000000	         -0.05699767	          0.00000000	          0.00000000	          0.00000000	          0.00000000	          0.00000000	          0.00000000	          0.00000000	          0.01330431	          0.00000000	          0.00000000	          0.00000000	          0.00000000	
          1.13000000	          1.90162063	         27.28782273	         -2.85742795	         -0.43694138	          0.00000000	         -0.05331528	          0.00000000	          0.00000000	          0.00000000	          0.00000000	          0.00000000	          0.00000000	          0.00000000	          0.01482661	          0.00000000	          0.00000000	          0.00000000	          0.00000000	
          1.13100000	          2.58359959	         41.86471867	         -3.71874372	         -0.43675973	          0.00000000	         -0.05075662	          0.00000000	          0.00000000	          0.00000000	          0.00000000	          0.00000000	          0.00000000	          0.00000000	          0.01908538	          0.00000000	          0.00000000	          0.00000000	          0.00000000	
          1.13200000	          3.38064517	         60.98420573	         -4.58398425	         -0.43662384	          0.00000000	         -0.04940555	          0.00000000	          0.00000000	          0.00000000	          0.00000000	          0.00000000	          0.00000000	          0.00000000	          0.02712923	          0.00000000	          0.00000000	          0.00000000	          0.00000000	
          1.13300000	          4.32713793	         85.09896187	         -5.46793427	         -0.43634789	          0.00000000	         -0.04893917	          0.00000000	          0.00000000	          0.00000000	          0.00000000	          0.00000000	          0.00000000	          0.00000000	          0.03670257	          0.00000000	          0.00000000	          0.00000000	          0.00000000	
          1.13400000	          5.41066783	        113.73145065	         -6.39092215	         -0.43584361	          0.00000000	         -0.04890674	          0.00000000	          0.00000000	          0.00000000	          0.00000000	          0.00000000	          0.00000000	          0.00000000	          0.04885029	          0.00000000	          0.00000000	          0.00000000	          0.00000000	
          1.13500000	          6.55036749	        145.21256129	         -7.37855973	         -0.43516061	          0.00000000	         -0.04900396	          0.00000000	          0.00000000	          0.00000000	          0.00000000	          0.00000000	          0.00000000	          0.00000000	          0.06787020	          0.00000000	          0.00000000	          0.00000000	          0.00000000	
